<?xml version="1.0" standalone="no"?>
<!DOCTYPE svg PUBLIC "-//W3C//DTD SVG 20010904//EN"
 "http://www.w3.org/TR/2001/REC-SVG-20010904/DTD/svg10.dtd">
<svg version="1.0" xmlns="http://www.w3.org/2000/svg"
 width="700.000000pt" height="700.000000pt" viewBox="0 0 700.000000 700.000000"
 preserveAspectRatio="xMidYMid meet">
<metadata>
Created by potrace 1.11, written by Peter Selinger 2001-2013
</metadata>
<g transform="translate(0.000000,700.000000) scale(0.100000,-0.100000)"
fill="#000000" stroke="none">
<path d="M3330 6914 c-414 -28 -735 -97 -1075 -231 -775 -305 -1419 -887
-1793 -1620 -159 -312 -256 -594 -321 -933 -75 -393 -75 -867 0 -1260 162
-849 624 -1589 1314 -2105 1117 -837 2627 -909 3822 -184 553 335 1015 842
1298 1424 497 1024 449 2243 -126 3221 -550 935 -1494 1549 -2564 1669 -132
15 -455 26 -555 19z m1055 -2030 c49 -23 69 -59 69 -124 l1 -55 377 -2 c390
-1 408 -3 492 -45 54 -27 131 -101 179 -173 23 -33 137 -224 253 -425 l213
-365 68 -51 c92 -68 162 -148 201 -226 62 -127 92 -327 92 -622 l0 -158 -39
-39 -39 -39 -114 0 -115 0 -17 -62 c-51 -183 -184 -319 -365 -372 -71 -21
-211 -21 -282 0 -177 52 -315 192 -365 372 l-17 62 -907 0 -907 0 -7 -42 c-10
-64 -69 -178 -121 -236 -61 -67 -152 -127 -232 -152 -88 -27 -227 -27 -315 0
-167 52 -308 200 -352 373 l-13 52 -161 3 c-160 2 -161 3 -181 29 -21 26 -21
31 -21 1120 0 1208 -4 1133 63 1173 31 19 60 20 1280 20 1120 0 1252 -2 1282
-16z m-2734 -22 c28 -23 30 -73 4 -102 -18 -19 -30 -20 -482 -20 -450 0 -464
1 -483 20 -11 11 -20 33 -20 50 0 17 9 39 20 50 19 19 33 20 479 20 431 0 460
-1 482 -18z m4 -312 c26 -29 24 -79 -4 -102 -22 -17 -50 -18 -428 -18 l-404 0
-24 25 c-30 30 -31 54 -4 89 l20 26 413 0 c401 0 413 -1 431 -20z m-12 -300
c14 -11 29 -29 32 -40 7 -23 -18 -75 -40 -84 -9 -3 -171 -6 -359 -6 -332 0
-344 1 -370 21 -41 32 -31 99 17 119 12 5 173 9 358 9 323 1 337 0 362 -19z
m-8 -296 c8 -4 23 -20 31 -36 19 -37 5 -80 -32 -97 -17 -7 -118 -11 -304 -11
-186 0 -287 4 -304 11 -50 23 -55 101 -9 128 19 11 589 16 618 5z m16 -322
c28 -23 30 -73 4 -102 -17 -19 -30 -20 -276 -20 -255 0 -258 0 -273 22 -22 31
-20 68 6 95 21 23 23 23 269 23 225 0 249 -2 270 -18z m4 -312 c23 -26 23 -74
0 -100 -17 -19 -30 -20 -221 -20 l-203 0 -20 26 c-12 15 -21 34 -21 44 0 10 9
29 21 44 l20 26 203 0 c191 0 204 -1 221 -20z m2 -314 c28 -33 25 -70 -9 -98
-17 -15 -41 -18 -161 -18 -131 0 -142 2 -164 22 -37 35 -26 99 20 118 12 5 82
8 155 7 l134 -2 25 -29z m-24 -287 c55 -25 55 -103 1 -128 -26 -12 -144 -15
-182 -5 -34 10 -57 59 -42 94 6 15 21 32 33 38 29 14 160 15 190 1z"/>
<path d="M1910 4055 l0 -695 1200 0 1200 0 0 695 0 695 -1200 0 -1200 0 0
-695z"/>
<path d="M4460 3630 l0 -930 258 0 259 0 17 62 c50 180 188 320 365 372 71 21
211 21 282 0 180 -53 314 -190 365 -372 l17 -62 78 0 c43 0 80 4 84 9 10 18
-14 415 -30 496 -32 157 -108 267 -233 340 -51 30 -55 36 -283 427 -238 410
-291 490 -356 538 -64 47 -93 50 -470 50 l-353 0 0 -930z m685 841 c95 -47
157 -127 308 -391 75 -133 137 -252 137 -265 0 -29 -57 -81 -119 -108 -100
-44 -129 -47 -517 -47 -351 0 -373 1 -395 19 l-24 19 0 382 0 382 24 19 c23
19 39 20 280 17 248 -3 258 -4 306 -27z m-121 -992 c19 -15 26 -30 26 -54 0
-24 -7 -39 -26 -54 -25 -19 -40 -21 -195 -21 -183 0 -211 6 -229 50 -9 22 -8
34 4 58 9 17 24 33 33 35 10 3 95 5 189 6 159 1 173 0 198 -20z"/>
<path d="M4680 4081 l0 -281 268 0 c280 1 386 8 439 31 l31 14 -107 189 c-59
103 -127 210 -150 237 -68 79 -79 82 -293 87 l-188 4 0 -281z"/>
<path d="M1911 3088 c0 -82 3 -116 9 -101 14 34 42 43 140 43 83 0 93 -2 115
-25 30 -29 32 -68 5 -95 -17 -17 -33 -20 -123 -20 -107 0 -124 6 -140 50 -3 8
-6 -43 -6 -113 l-1 -128 106 3 107 3 13 52 c23 90 72 173 143 243 108 107 214
150 366 150 148 0 261 -47 366 -150 71 -70 132 -178 145 -257 l7 -43 573 0
574 0 0 255 0 255 -1200 0 -1200 0 1 -122z m2310 -76 c28 -23 30 -73 4 -102
-18 -20 -30 -20 -533 -20 -466 0 -517 2 -534 17 -24 22 -24 77 2 103 19 19 33
20 529 20 480 0 510 -1 532 -18z"/>
<path d="M2564 3000 c-106 -21 -210 -104 -261 -208 -25 -51 -28 -67 -28 -162
0 -95 3 -111 28 -162 38 -77 107 -144 187 -182 58 -28 75 -31 155 -30 75 0 99
4 148 27 80 36 158 113 193 190 26 54 29 73 29 157 0 84 -3 103 -29 157 -74
160 -247 247 -422 213z m215 -125 c94 -51 144 -137 144 -245 0 -113 -53 -199
-155 -249 -101 -51 -203 -41 -294 28 -90 68 -131 188 -100 294 23 80 70 135
146 175 60 31 71 34 136 30 53 -4 83 -12 123 -33z"/>
<path d="M2606 2760 c-93 -28 -127 -152 -60 -221 67 -70 175 -54 220 33 52
100 -51 221 -160 188z"/>
<path d="M5410 2996 c-75 -20 -122 -48 -175 -101 -150 -149 -150 -381 0 -530
149 -151 380 -151 530 0 207 206 113 556 -170 630 -70 18 -123 18 -185 1z
m205 -134 c196 -101 190 -373 -10 -468 -122 -58 -271 -5 -338 121 -29 53 -30
173 -3 225 35 67 95 118 166 141 41 14 142 3 185 -19z"/>
<path d="M5434 2722 c-29 -23 -44 -54 -44 -92 0 -67 43 -109 111 -110 32 0 54
6 72 20 55 43 53 140 -2 180 -36 25 -107 27 -137 2z"/>
</g>
</svg>
